<svg xmlns="http://www.w3.org/2000/svg" aria-hidden="true" style="position:absolute;width:0;height:0;overflow:hidden"><defs><symbol id="devices-svg" viewBox="0 0 20 20"><path d="M17 6V5h-2V2H3v14h5v4h3a2 2 0 0 1-2-2V8a2 2 0 0 1 2-2h6zm-5.75 14H3a2 2 0 0 1-2-2V2c0-1.1.9-2 2-2h12a2 2 0 0 1 2 2v4a2 2 0 0 1 2 2v10a2 2 0 0 1-2 2h-5.75zM11 8v8h6V8h-6zm3 11a1 1 0 0 0 0-2 1 1 0 0 0 0 2z"/></symbol><symbol id="bicycle-svg" viewBox="0 0 32 32"><path d="M31.68 17.569a5.944 5.944 0 0 0-5.629-4.033c-.382 0-.761.049-1.135.122L22.69 7.112a.803.803 0 0 0-.76-.544h-1.499a.804.804 0 0 0 0 1.606h.924l.808 2.377h-8.799V9.124l1.409-.183a.495.495 0 0 0 0-.982l-4.47-.58a1.081 1.081 0 0 0-1.21 1.21 1.08 1.08 0 0 0 1.21.932l1.455-.189v1.687l-2.676 3.424a5.903 5.903 0 0 0-3.136-.903c-3.279 0-5.947 2.668-5.947 5.946s2.668 5.947 5.947 5.947c2.911 0 5.335-2.104 5.844-4.87h2.179v.82h-.383a.534.534 0 1 0 0 1.07h2.372a.534.534 0 1 0 0-1.07h-.383v-.82h.36c.247 0 .48-.114.633-.308l6.197-7.93.634 1.863a5.886 5.886 0 0 0-2.686 2.67 5.904 5.904 0 0 0-.295 4.542 5.946 5.946 0 0 0 10.965.712 5.907 5.907 0 0 0 .295-4.543zm-22.376-.801c.499.615.829 1.363.931 2.188H7.594l1.71-2.188zm-3.357 7.058c-2.394 0-4.341-1.947-4.341-4.341s1.947-4.34 4.341-4.34c.778 0 1.499.222 2.131.582l-2.764 3.537a.802.802 0 0 0 .633 1.297h4.189c-.482 1.872-2.17 3.264-4.189 3.264zm9.598-4.87h-3.678a5.924 5.924 0 0 0-1.548-3.488l1.439-1.842v2.106a.804.804 0 0 0 1.606 0v-3.576h7.494l-5.314 6.8zm9.33-.432.414 1.219a.802.802 0 1 0 1.52-.518l-.411-1.209a1.51 1.51 0 0 1 1.018 2.141c-.18.365-.491.638-.876.769a1.549 1.549 0 0 1-1.932-.951 1.518 1.518 0 0 1 .267-1.451zm5.069 2.878a4.32 4.32 0 0 1-2.497 2.193 4.342 4.342 0 0 1-5.291-6.027 4.302 4.302 0 0 1 1.762-1.859l.582 1.713a2.589 2.589 0 0 0-.905 2.898 2.594 2.594 0 1 0 4.911-1.67c-.36-1.057-1.399-1.737-2.483-1.739l-.584-1.717c.203-.029.407-.051.613-.051a4.34 4.34 0 0 1 4.109 2.944 4.314 4.314 0 0 1-.215 3.315z"/></symbol><symbol id="children-svg" viewBox="0 0 32 32"><path d="M11.141 9.491c1.579 1.012 2.38 2.73 1.612 3.928s-2.663 1.188-4.242.176a5.245 5.245 0 0 1-.577-.43l.006.005a6.543 6.543 0 0 1-1.823 1.715c-2.169 1.39-4.735 1.404-5.742-.167s.077-3.897 2.246-5.287c1.805-1.157 3.896-1.366 5.129-.475.937-.408 2.25-.194 3.39.537zm-.691 1.078c-.933-.598-1.944-.685-2.365-.333a.64.64 0 0 1-.892-.07c-.635-.727-2.331-.651-3.88.342-1.648 1.056-2.401 2.673-1.859 3.519s2.326.836 3.973-.22c.838-.537 1.479-1.245 1.806-1.958a.64.64 0 0 1 1.088-.125c.228.295.529.568.881.794 1.059.679 2.171.684 2.474.211s-.167-1.481-1.226-2.159zM8.483 19.33a1.912 1.912 0 0 1-3.569-.068.64.64 0 0 0-1.204.434 3.191 3.191 0 0 0 5.96.114.64.64 0 1 0-1.187-.481zm-2.83-2.247a.957.957 0 1 1-1.915 0 .957.957 0 0 1 1.915 0zm4.225 0a.957.957 0 1 1-1.914 0 .957.957 0 0 1 1.914 0z"/><path d="M11.266 14.176a5.51 5.51 0 0 1-4.458 8.747A5.51 5.51 0 0 1 1.806 15.1a.64.64 0 0 0-1.161-.539 6.79 6.79 0 0 0 6.163 9.642 6.79 6.79 0 0 0 5.493-10.781.64.64 0 1 0-1.035.753zm13.929 4.731a1.912 1.912 0 0 1-3.569-.068.64.64 0 0 0-1.204.434 3.191 3.191 0 0 0 5.96.114.64.64 0 1 0-1.187-.481zm-2.916-2.091a.958.958 0 1 1-1.916 0 .958.958 0 0 1 1.916 0zm4.225 0a.958.958 0 1 1-1.916 0 .958.958 0 0 1 1.916 0z"/><path d="M28.166 14.572a5.51 5.51 0 0 1-4.732 8.333 5.51 5.51 0 0 1-4.669-8.435.64.64 0 0 0-1.083-.681 6.79 6.79 0 0 0 5.753 10.396 6.79 6.79 0 0 0 5.83-10.271.641.641 0 0 0-1.099.657z"/><path d="M16.145 16.254a7.294 7.294 0 0 1 7.294-7.294 7.151 7.151 0 0 1 7.151 7.151v3.552h-1.605a.64.64 0 0 0 0 1.28h1.698c.656 0 1.187-.532 1.187-1.187v-3.645a8.431 8.431 0 0 0-8.431-8.431 8.574 8.574 0 0 0-8.574 8.574v3.501c0 .656.531 1.187 1.187 1.187h1.921a.64.64 0 0 0 0-1.28h-1.828v-3.409z"/><path d="M18.237 14.779h10.404a.64.64 0 0 0 0-1.28H18.237a.64.64 0 0 0 0 1.28z"/></symbol><symbol id="cooking-svg" viewBox="0 0 32 32"><path d="M1.297 16.966h6.438c.563 0 1.044.362 1.224.867h5.281l-.198-1.047a.43.43 0 0 1 .422-.511h17.104a.433.433 0 0 1 .409.573l-.701 2.651c-.201.763-.539 1.482-1.047 1.987a2.446 2.446 0 0 1-1.781.745H17.38c-.75 0-1.37-.294-1.846-.771-.508-.508-.844-1.221-.987-1.992l-.146-.771H8.958c-.18.503-.661.867-1.224.867H1.296c-.711-.003-1.297-.586-1.297-1.299s.583-1.299 1.297-1.299zm25.914-7.075c.169-.169.443-.169.609 0s.169.443 0 .609c-.411.411-.224.763-.005 1.172.367.688.792 1.477.073 2.719a.43.43 0 1 1-.745-.433c.477-.828.177-1.391-.086-1.883-.38-.708-.708-1.32.154-2.185zm-3.208 0c.169-.169.443-.169.609 0s.169.443 0 .609c-.411.411-.224.763-.005 1.172.367.688.792 1.477.073 2.719a.43.43 0 1 1-.745-.433c.477-.828.177-1.391-.086-1.883-.38-.708-.708-1.32.154-2.185zm-3.206 0a.43.43 0 0 1 .609 0 .43.43 0 0 1 0 .609c-.411.411-.224.763-.005 1.172.367.688.792 1.477.073 2.719a.43.43 0 1 1-.745-.433c.477-.828.177-1.391-.086-1.883-.383-.708-.711-1.32.154-2.185zm-3.208 0a.43.43 0 0 1 .609 0 .43.43 0 0 1 0 .609c-.411.411-.224.763-.005 1.172.367.688.792 1.477.073 2.719a.43.43 0 1 1-.745-.433c.477-.828.177-1.391-.086-1.883-.38-.708-.708-1.32.154-2.185zm12.856 9.388.565-2.141H14.984l.409 2.172c.115.604.37 1.159.753 1.542.32.32.737.518 1.237.518h11.068c.482 0 .867-.19 1.172-.492.391-.393.659-.971.823-1.599z"/></symbol><symbol id="gardening-svg" viewBox="0 0 32 32"><path d="M22.971 17.925h-5.975v-4.102a5.38 5.38 0 0 0 .405-.084l.452 1.046a.997.997 0 0 0 1.829-.79l-.454-1.049c.065-.042.128-.085.191-.13l.811.812a.995.995 0 1 0 1.408-1.408l-.813-.813c.078-.11.152-.222.222-.337l1.067.423a.996.996 0 0 0 .734-1.852l-1.066-.422c.018-.084.033-.169.048-.254h1.141a.996.996 0 0 0 0-1.992h-1.152a5.828 5.828 0 0 0-.079-.376l1.054-.456a.996.996 0 1 0-.79-1.828l-1.058.458a5.314 5.314 0 0 0-.124-.182l.817-.818a.995.995 0 1 0-1.408-1.408l-.817.817a6.15 6.15 0 0 0-.343-.226l.424-1.069a.996.996 0 0 0-1.852-.734l-.423 1.067a4.17 4.17 0 0 0-.223-.042V.997a.996.996 0 0 0-1.992 0v1.179a5.75 5.75 0 0 0-.399.082l-.458-1.059a.996.996 0 1 0-1.828.79l.459 1.06a7.442 7.442 0 0 0-.184.125l-.813-.813a.995.995 0 1 0-1.408 1.408l.812.811c-.08.113-.157.228-.229.347l-1.068-.423a.996.996 0 0 0-.734 1.852l1.066.422a4.107 4.107 0 0 0-.037.193H9.032a.996.996 0 0 0 0 1.992h1.141c.024.144.053.287.087.428l-1.051.454A.996.996 0 1 0 10 11.673l1.051-.454c.043.065.086.13.131.193l-.807.807a.995.995 0 1 0 1.408 1.408l.807-.807c.111.079.225.154.342.225l-.422 1.066a.996.996 0 0 0 1.852.734l.422-1.064c.074.016.149.03.224.043v4.102H9.033c-.55 0-.996.459-.996 1.009 0 .523.403.957.916.998l1.886 11.221c.081.479.496.846.982.846h8.365c.486 0 .901-.364.982-.843l1.886-11.212a1.01 1.01 0 0 0 .916-1.008 1.01 1.01 0 0 0-.996-1.012zM12.083 7.999c0-2.16 1.757-3.917 3.917-3.917s3.917 1.757 3.917 3.917S18.16 11.916 16 11.916s-3.917-1.757-3.917-3.917zm7.257 22.009h-6.68l-1.69-10.091h10.061l-1.69 10.091z"/><path d="M17.152 7.967a1.152 1.152 0 1 1-2.305 0 1.152 1.152 0 0 1 2.305 0z"/></symbol><symbol id="piano-svg" viewBox="0 0 32 32"><path d="m3.211 19.193-.001.02.001-.02zM14.644 23.38c-.15.243-.037.098-2.324 2.618l.628 2.674a1.43 1.43 0 0 0 2.785-.653l-1.089-4.639zM8.592 4.855a2.631 2.631 0 1 1-5.262 0 2.631 2.631 0 0 1 5.262 0z"/><path d="M30.974 15.426h-.196c-.023-1.88-1.04-4.154-4.765-6.076-1.084-.559-1.759-2.421-1.927-3.09a.906.906 0 0 0-1.703-.16l-4.277 9.326H14.87a1.191 1.191 0 0 0-.805-2.132l-4.115.257-2.335-3.08 1.866 1.458-.104-1.574a1.778 1.778 0 0 0-1.891-1.656l-3.163.21A1.778 1.778 0 0 0 2.667 10.8l.384 5.783c.221 3.252.157 3.091.336 3.39.302.501.735.57.735.57H.907a.906.906 0 0 0 0 1.812h3.345v5.296c.104-.372.293-.726.571-1.032l1.242-1.368v-2.896h2.458l1.241.511-4.099 4.517a1.43 1.43 0 0 0 2.119 1.923l5.467-6.025a1.43 1.43 0 0 0-.515-2.284l-5.587-2.301c6.599 1.37 6.304 1.262 6.76 1.545-.391-1.665-.306-1.308-.327-1.386l1.173 1.602c.193.264.501.42.828.42h11.831v7.873a1.026 1.026 0 1 0 2.052 0v-7.873h1.508c.567 0 1.026-.459 1.026-1.026v-3.399c0-.567-.459-1.026-1.026-1.026zM12.197 17.78H9.868l-.042-.638-.79.049a1.574 1.574 0 0 1-1.55-.97l-1.772-4.309 2.722 3.589c.226.298.578.472.95.472.06 0-.129.01 2.923-.18a1.026 1.026 0 0 0-.086 1.2c.037.059.009.018.732 1.006a1.41 1.41 0 0 0-.757-.218zm7.902-2.354 3.048-6.646c.453.834 1.113 1.704 2.034 2.18 2.469 1.274 3.735 2.773 3.78 4.466h-8.862z"/></symbol><symbol id="book-svg" viewBox="0 0 32 32"><path d="M28 4v26H7a3 3 0 1 1 0-6h19V0H6C3.8 0 2 1.8 2 4v24c0 2.2 1.8 4 4 4h24V4h-2z"/><path d="M7.002 26H7a1 1 0 0 0 0 2h18.999v-2H7.002z"/></symbol></defs></svg>